<svg width="16" height="16" viewBox="0 0 16 16" fill="none" xmlns="http://www.w3.org/2000/svg">
<g clip-path="url(#clip0_169132_108)">
<path fill-rule="evenodd" clip-rule="evenodd" d="M12.2654 11.5662L15.7716 8.49872C16.0485 8.25622 16.0766 7.8356 15.8341 7.5581C15.8148 7.5356 15.7935 7.51497 15.7716 7.4956L12.2441 4.40936C11.9791 4.17748 11.5797 4.19185 11.3316 4.44123L11.3285 4.44498C11.0954 4.67999 11.0966 5.05999 11.3316 5.29311C11.3391 5.29999 11.346 5.30749 11.3535 5.31374L13.6017 7.33054H4.66725C4.29912 7.33054 4.00099 7.62866 4.00099 7.99742C4.00099 8.36554 4.29912 8.66367 4.66725 8.66367H13.6017L11.3842 10.585C11.1142 10.8187 11.0848 11.2268 11.3186 11.4962C11.3217 11.4999 11.3255 11.5037 11.3286 11.5074L11.333 11.5124C11.5773 11.7818 11.9923 11.8056 12.2655 11.5662L12.2654 11.5662ZM10.0028 3.33312C9.6347 3.33312 9.33595 3.03499 9.33595 2.66624V1.33312H1.99963C1.6315 1.33312 1.33275 1.63187 1.33275 2V14C1.33275 14.3681 1.6315 14.6669 1.99963 14.6669H9.33595V13.3338C9.33595 12.965 9.6347 12.6669 10.0028 12.6669C10.3716 12.6669 10.6697 12.965 10.6697 13.3338V14.6669C10.666 15.3331 9.99909 16 9.33597 16H1.33277C0.665887 16 -0.000976562 15.3331 -0.000976562 14.6669V1.33312C-0.000976562 0.666864 0.665904 0 1.33277 0H9.33213C9.99901 0 10.6659 0.680624 10.6659 1.33312L10.6684 2.66624C10.669 3.03374 10.3721 3.3325 10.0046 3.33312H10.0028H10.0028Z" fill="#213F7D"/>
</g>
<defs>
<clipPath id="clip0_169132_108">
<rect width="16" height="16" fill="white"/>
</clipPath>
</defs>
</svg>
